<?xml version="1.0" encoding="UTF-8" standalone="no"?>
<!-- Created with Inkscape (http://www.inkscape.org/) -->

<svg
   width="26.309408mm"
   height="26.032101mm"
   viewBox="0 0 26.309408 26.032101"
   version="1.1"
   id="svg9661"
   inkscape:version="1.1.1 (1:1.1+202109281949+c3084ef5ed)"
   sodipodi:docname="newLeafBigger7.svg"
   xmlns:inkscape="http://www.inkscape.org/namespaces/inkscape"
   xmlns:sodipodi="http://sodipodi.sourceforge.net/DTD/sodipodi-0.dtd"
   xmlns="http://www.w3.org/2000/svg"
   xmlns:svg="http://www.w3.org/2000/svg">
  <sodipodi:namedview
     id="namedview9663"
     pagecolor="#ffffff"
     bordercolor="#999999"
     borderopacity="1"
     inkscape:pageshadow="0"
     inkscape:pageopacity="0"
     inkscape:pagecheckerboard="0"
     inkscape:document-units="mm"
     showgrid="false"
     inkscape:zoom="2.6960927"
     inkscape:cx="41.356145"
     inkscape:cy="35.977992"
     inkscape:window-width="1366"
     inkscape:window-height="721"
     inkscape:window-x="0"
     inkscape:window-y="0"
     inkscape:window-maximized="1"
     inkscape:current-layer="layer1" />
  <defs
     id="defs9658" />
  <g
     inkscape:label="Layer 1"
     inkscape:groupmode="layer"
     id="layer1"
     transform="translate(-60.234819,-110.22507)">
    <path
       style="color:#000000;display:inline;fill:#000000;-inkscape-stroke:none;fill-opacity:0.46000001"
       d="m 79.44938,116.85047 c -0.134574,2.80555 0.334471,3.78543 0.384371,5.67213 l 0.0055,0.4389 0.248899,-0.40872 c 0.908414,-1.58006 2.071459,-2.41389 2.047559,-5.03886 l -1.64e-4,-0.004 -8.4e-5,-0.002 c -0.162544,-2.09143 -0.619855,-2.90101 -1.015984,-3.90423 l -0.06997,-0.17691 -0.106809,0.15695 c -0.56852,0.84752 -1.197855,1.61048 -1.49201,3.25285 l 3.26e-4,0.008 z m 0.200109,0.017 c 0.269818,-1.49881 0.815719,-2.21689 1.355721,-3.00669 0.380471,0.9315 0.779916,1.71922 0.931277,3.65561 2e-6,7.7e-4 7e-5,0.001 8.4e-5,0.002 0.02125,2.40728 -1.114986,3.62369 -2.014517,5.09862 -0.08286,-1.76163 -0.397436,-3.12149 -0.272563,-5.74949 z"
       id="path5915"
       sodipodi:nodetypes="cccccccccccccsccccss" />
    <path
       style="color:#000000;display:inline;fill:#000000;-inkscape-stroke:none;fill-opacity:0.46000001"
       d="m 79.97773,129.31535 c -0.368923,-2.78444 0.01646,-3.80015 -0.09173,-5.6844 l -0.03127,-0.43781 0.282234,0.38644 c 1.037477,1.49849 2.266231,2.23205 2.46212,4.8498 l 1.64e-4,0.004 8.4e-5,0.002 c 0.01308,2.0977 -0.374871,2.9427 -0.685641,3.97556 l -0.05492,0.18215 -0.119571,-0.14746 c -0.637462,-0.79696 -1.328447,-1.50457 -1.759035,-3.11656 l -3.26e-4,-0.008 z m 0.197981,-0.0337 c 0.39432,1.47097 0.998408,2.14083 1.602621,2.88267 0.30117,-0.96008 0.633282,-1.77847 0.622039,-3.72073 -6.3e-5,-7.7e-4 -3.1e-5,-0.001 -8.4e-5,-0.002 -0.180311,-2.40061 -1.414372,-3.51766 -2.434196,-4.91211 0.06488,1.76238 -0.134777,3.14379 0.209618,5.75212 z"
       id="path5915-7"
       sodipodi:nodetypes="cccccccccccccsccccss" />
    <path
       style="color:#000000;display:inline;fill:#000000;-inkscape-stroke:none;fill-opacity:0.46422744"
       d="m 74.802836,113.19086 c 0.02305,0.94844 0.140476,1.95896 0.458235,3.0968 l 0.0024,0.01 0.0044,0.01 c 1.302197,2.47587 2.598676,4.4121 4.175409,6.35688 l 0.247468,0.25739 -0.02864,-0.49213 c -0.324599,-2.69214 -0.218903,-5.21702 -1.073969,-7.58476 l -0.0021,-0.002 -8.4e-5,-0.002 c -1.042684,-2.53973 -2.339904,-3.14474 -3.509329,-4.43893 l -0.159896,-0.17704 -0.0134,0.23905 c -0.05256,0.89261 -0.123738,1.77887 -0.100692,2.7273 z m 0.201077,-0.006 c -0.02069,-0.85867 0.04112,-1.66695 0.09124,-2.48646 1.14514,1.20051 2.327604,1.83883 3.304445,4.21489 0.796637,2.20593 0.880788,5.12067 1.16592,7.71275 -1.478025,-1.85739 -2.885746,-4.06733 -4.115659,-6.40446 -0.310212,-1.11517 -0.423494,-2.10456 -0.445948,-3.03672 z"
       id="path5012"
       sodipodi:nodetypes="cccccccccccccccsccccs" />
    <path
       style="color:#000000;display:inline;fill:#000000;-inkscape-stroke:none;fill-opacity:0.46000001"
       d="m 75.66819,133.31099 c -0.05642,-0.94704 -0.02398,-1.96384 0.197428,-3.12429 l 0.0016,-0.01 0.0036,-0.01 c 1.090401,-2.57618 2.220271,-4.61413 3.628696,-6.68405 l 0.225056,-0.2772 0.01265,0.4928 c -0.09813,2.70986 0.218523,5.21704 -0.435365,7.64803 l -0.0019,0.002 8.4e-5,0.002 c -0.826454,2.61809 -2.068483,3.32956 -3.125483,4.71708 l -0.144517,0.18981 -0.03336,-0.23709 c -0.127084,-0.88509 -0.272193,-1.76228 -0.32861,-2.70931 z m 0.200909,-0.0104 c 0.05126,0.85739 0.180502,1.65766 0.299035,2.4701 1.040641,-1.29215 2.165529,-2.0272 2.94007,-4.47668 0.609208,-2.26487 0.449104,-5.17643 0.516282,-7.78327 -1.317378,1.97458 -2.535191,4.29458 -3.565173,6.72646 -0.215786,1.13722 -0.245859,2.13262 -0.190214,3.06339 z"
       id="path5012-2"
       sodipodi:nodetypes="cccccccccccccccsccccs" />
    <path
       style="color:#000000;display:inline;fill:#000000;stroke:#000000;stroke-width:0;stroke-miterlimit:4;stroke-dasharray:none;stroke-opacity:1;paint-order:markers stroke fill;fill-opacity:0.46000001"
       d="m 60.23482,124.2728 0.204021,0.0638 c 2.593209,0.81825 4.656694,2.27682 8.25549,2.0564 l 0.004,-1.7e-4 0.004,-1.6e-4 c 3.920021,-0.52187 7.316603,-2.17585 10.922887,-3.27195 l 0.008,-0.001 c -3.670226,-0.71946 -7.340963,-1.87891 -11.076983,-2.06707 l -0.004,1.6e-4 -0.002,9e-5 c -3.771181,0.0651 -5.881055,1.67849 -8.134885,3.10518 z m 0.463124,-0.0507 c 2.197259,-1.40281 4.23326,-2.90775 7.855139,-2.9703 3.58313,0.18134 7.109556,1.17643 10.668802,1.89463 -3.491483,1.09182 -6.788269,2.54734 -10.54565,3.04791 -6.57e-4,9e-5 -0.001,-2e-5 -0.002,8e-5 -3.441275,0.20832 -5.449648,-1.13581 -7.976333,-1.97232 z"
       id="path2559"
       sodipodi:nodetypes="ccccccccccccsccsccs" />
    <path
       style="color:#000000;display:inline;fill:#000000;-inkscape-stroke:none;fill-opacity:0.46000001"
       d="m 65.543578,113.81371 0.126726,0.17844 c 1.612486,2.24898 2.412941,4.81911 5.769626,6.54924 l 0.0041,0.002 0.004,-1.7e-4 c 2.681289,1.13965 4.907615,1.70672 7.667798,2.31838 l 0.515281,0.14108 -0.321257,-0.3272 c -0.746297,-0.89009 -2.519676,-3.17657 -5.120364,-6.17056 l -0.0063,-0.008 -0.0082,-0.006 c -2.869424,-2.30137 -5.656462,-2.40002 -8.413626,-2.65773 z m 0.409217,0.2487 c 2.690468,0.24489 5.34337,0.37986 8.091782,2.5813 2.490752,2.86744 4.409306,5.20451 5.231818,6.17905 -2.639819,-0.59856 -5.188685,-1.37519 -7.748294,-2.46296 -5.71e-4,-2.5e-4 -9.88e-4,3.1e-4 -0.002,8e-5 -3.202175,-1.65338 -4.025656,-4.06775 -5.573358,-6.29747 z"
       id="path583"
       sodipodi:nodetypes="cccccccccccccsccsccs" />
    <path
       style="color:#000000;display:inline;fill:#000000;-inkscape-stroke:none;fill-opacity:0.46000001"
       d="m 66.355925,133.53703 0.111345,-0.18842 c 1.418592,-2.37605 2.001122,-5.00416 5.201218,-7.00917 l 0.0039,-0.002 0.004,-1.6e-4 c 2.576493,-1.36007 4.747545,-2.11149 7.446847,-2.95203 l 0.501665,-0.18372 -0.292744,0.35294 c -0.669179,0.94943 -2.244959,3.37632 -4.58593,6.57747 l -0.0057,0.008 -0.0077,0.006 c -2.666733,2.53347 -5.435735,2.86504 -8.161654,3.35261 z m 0.386964,-0.28208 c 2.660531,-0.46922 5.292827,-0.82576 7.847337,-3.24952 2.242011,-3.06585 3.958224,-5.5553 4.696282,-6.59526 -2.580456,0.81741 -5.055377,1.80465 -7.514959,3.10284 -5.49e-4,2.9e-4 -10e-4,-2.3e-4 -0.002,8e-5 -3.052551,1.91561 -3.671064,4.39042 -5.026711,6.74186 z"
       id="path583-1"
       sodipodi:nodetypes="cccccccccccccsccsccs" />
    <circle
       style="display:inline;fill:#fe6200;fill-opacity:1;stroke:#fe6200;stroke-width:0.563033;stroke-miterlimit:4;stroke-dasharray:none;stroke-dashoffset:0;stroke-opacity:1"
       id="path8162"
       cx="-126.25292"
       cy="74.154541"
       r="2.8541698"
       transform="rotate(-92.4006)" />
    <g
       id="path21288-0"
       transform="matrix(1.5021289,0.17131939,-0.82594944,4.3312969,82.191269,-465.7233)"
       style="display:inline">
      <path
         style="color:#000000;fill:#fe6200;stroke-width:0.265;-inkscape-stroke:none"
         d="m 64.075999,133.39902 5.074365,-0.16876 z"
         id="path6934" />
      <path
         style="color:#000000;fill:#fe6200;-inkscape-stroke:none"
         d="m 69.254681,133.1125 -7.188928,0.54172 0.07719,0.002 7.315052,-0.29044 c -0.07588,-0.0585 -0.173625,-0.13523 -0.203314,-0.25328 z"
         id="path6936"
         sodipodi:nodetypes="ccccc" />
    </g>
    <g
       id="path21288-0-3"
       transform="matrix(0.98263608,0.86726904,-0.66172339,0.74974806,96.684141,-38.761265)"
       style="display:inline">
      <path
         style="color:#000000;fill:#fe6200;stroke-width:0.265;-inkscape-stroke:none"
         d="m 64.075999,133.39902 5.074365,-0.16876 z"
         id="path6934-6" />
      <path
         style="color:#000000;fill:#fe6200;-inkscape-stroke:none"
         d="m 69.923815,132.46229 -7.167753,1.7264 0.07707,-0.006 7.253014,-0.75016 c -0.01303,-0.084 -0.161218,-0.88108 -0.162319,-0.97004 z"
         id="path6936-7"
         sodipodi:nodetypes="ccccc" />
    </g>
    <g
       id="path21288-0-3-6"
       transform="matrix(0.98263608,-0.86726904,-0.66172339,-0.74974806,96.938665,285.44068)"
       style="display:inline">
      <path
         style="color:#000000;fill:#fe6200;stroke-width:0.265;-inkscape-stroke:none"
         d="m 64.075999,133.39902 5.074365,-0.16876 z"
         id="path6934-6-2" />
      <path
         style="color:#000000;fill:#fe6200;-inkscape-stroke:none"
         d="m 69.646131,133.00022 -7.235076,0.69961 0.07719,0.002 7.151538,0.0844 c -0.0079,-0.0851 0.0021,-0.69719 0.0063,-0.78598 z"
         id="path6936-7-9"
         sodipodi:nodetypes="ccccc" />
    </g>
    <g
       id="path21288-0-3-5"
       transform="matrix(0.15134752,0.75911319,-0.97682002,-0.06961476,197.9483,76.381803)"
       style="display:inline">
      <path
         style="color:#000000;fill:#fe6200;stroke-width:0.265;-inkscape-stroke:none"
         d="m 64.075999,133.39902 5.074365,-0.16876 z"
         id="path6934-6-3" />
      <path
         style="color:#000000;fill:#fe6200;-inkscape-stroke:none"
         d="m 69.688188,132.51604 -7.091848,1.04279 0.07719,0.002 7.362789,-0.15806 c -0.0079,-0.0851 -0.352422,-0.79794 -0.348131,-0.88673 z"
         id="path6936-7-5"
         sodipodi:nodetypes="ccccc" />
    </g>
    <g
       id="path21288-0-3-5-0"
       transform="matrix(-0.12078792,0.51309415,-0.88838844,-0.20604918,207.29052,111.64778)"
       style="display:inline">
      <path
         style="color:#000000;fill:#fe6200;stroke-width:0.265;-inkscape-stroke:none"
         d="m 64.075999,133.39902 5.074365,-0.16876 z"
         id="path6934-6-3-9" />
      <path
         style="color:#000000;fill:#fe6200;-inkscape-stroke:none"
         d="m 70.257847,132.7387 -7.321288,0.94073 0.07719,0.002 7.232241,-0.0116 c -0.0079,-0.0851 0.0076,-0.84235 0.01186,-0.93114 z"
         id="path6936-7-5-3"
         sodipodi:nodetypes="ccccc" />
    </g>
    <g
       id="path21288-0-3-5-0-6"
       transform="matrix(-0.15622494,-0.50343728,-0.87188319,0.26741352,207.76745,125.50198)"
       style="display:inline">
      <path
         style="color:#000000;fill:#fe6200;stroke-width:0.265;-inkscape-stroke:none"
         d="m 64.075999,133.39902 5.074365,-0.16876 z"
         id="path6934-6-3-9-0" />
      <path
         style="color:#000000;fill:#fe6200;-inkscape-stroke:none"
         d="m 70.451546,132.77249 -7.263024,0.815 0.07719,0.002 7.043497,-0.11692 c -0.0079,-0.0851 0.138046,-0.61129 0.142337,-0.70008 z"
         id="path6936-7-5-3-6"
         sodipodi:nodetypes="ccccc" />
    </g>
    <g
       id="path21288-0-3-5-1"
       transform="matrix(0.15134752,-0.75911319,-0.97682002,0.06961476,198.52345,169.80888)"
       style="display:inline">
      <path
         style="color:#000000;fill:#fe6200;stroke-width:0.265;-inkscape-stroke:none"
         d="m 64.075999,133.39902 5.074365,-0.16876 z"
         id="path6934-6-3-2" />
      <path
         style="color:#000000;fill:#fe6200;-inkscape-stroke:none"
         d="m 69.765613,132.86192 -7.087159,0.79488 0.07719,0.002 7.324994,0.0279 c -0.0079,-0.0851 -0.319316,-0.73598 -0.315025,-0.82477 z"
         id="path6936-7-5-7"
         sodipodi:nodetypes="ccccc" />
    </g>
    <circle
       style="fill:#000000;fill-opacity:0.46422744;stroke:#000000;stroke-width:0.264999;paint-order:markers stroke fill;stroke-opacity:1"
       id="path12689"
       cx="79.590317"
       cy="123.04475"
       r="2.7381289" />
  </g>
  <g
     inkscape:groupmode="layer"
     id="layer2"
     inkscape:label="Layer 2" />
</svg>
