<?xml version="1.0" encoding="UTF-8" standalone="no"?>
<svg
   xmlns:dc="http://purl.org/dc/elements/1.1/"
   xmlns:cc="http://creativecommons.org/ns#"
   xmlns:rdf="http://www.w3.org/1999/02/22-rdf-syntax-ns#"
   xmlns:svg="http://www.w3.org/2000/svg"
   xmlns="http://www.w3.org/2000/svg"
   xmlns:sodipodi="http://sodipodi.sourceforge.net/DTD/sodipodi-0.dtd"
   xmlns:inkscape="http://www.inkscape.org/namespaces/inkscape"
   style="enable-background:new 0 0 24 24;"
   version="1.1"
   viewBox="0 0 24 24"
   xml:space="preserve"
   id="svg881"
   sodipodi:docname="signup2.svg"
   inkscape:version="1.0.1 (0767f8302a, 2020-10-17)"><metadata
     id="metadata887"><rdf:RDF><cc:Work
         rdf:about=""><dc:format>image/svg+xml</dc:format><dc:type
           rdf:resource="http://purl.org/dc/dcmitype/StillImage" /><dc:title></dc:title></cc:Work></rdf:RDF></metadata><defs
     id="defs885" /><sodipodi:namedview
     pagecolor="#ffffff"
     bordercolor="#666666"
     borderopacity="1"
     objecttolerance="10"
     gridtolerance="10"
     guidetolerance="10"
     inkscape:pageopacity="0"
     inkscape:pageshadow="2"
     inkscape:window-width="1366"
     inkscape:window-height="721"
     id="namedview883"
     showgrid="false"
     inkscape:zoom="22"
     inkscape:cx="12"
     inkscape:cy="11.954545"
     inkscape:window-x="0"
     inkscape:window-y="0"
     inkscape:window-maximized="1"
     inkscape:current-layer="svg881" /><g
     id="info" /><g
     id="icons"><path
       d="M12,0C5.4,0,0,5.4,0,12c0,6.6,5.4,12,12,12s12-5.4,12-12C24,5.4,18.6,0,12,0z M12,4c2.2,0,4,2.2,4,5s-1.8,5-4,5   s-4-2.2-4-5S9.8,4,12,4z M18.6,19.5C16.9,21,14.5,22,12,22s-4.9-1-6.6-2.5c-0.4-0.4-0.5-1-0.1-1.4c1.1-1.3,2.6-2.2,4.2-2.7   c0.8,0.4,1.6,0.6,2.5,0.6s1.7-0.2,2.5-0.6c1.7,0.5,3.1,1.4,4.2,2.7C19.1,18.5,19.1,19.1,18.6,19.5z"
       id="user2" /></g><path
     style="fill:none;stroke-width:0.0454545"
     d="M 11.318182,23.951058 C 8.4634036,23.796832 5.7821264,22.608496 3.6875182,20.569165 2.2327703,19.152809 1.257945,17.606998 0.63410395,15.727273 0.21246367,14.456808 0.04350543,13.39137 0.04323772,12.001313 0.04297005,10.611522 0.21208821,9.5443232 0.63410395,8.2727273 2.0958844,3.8681655 5.9830091,0.67510695 10.568182,0.11242974 c 0.769261,-0.09440118 2.094375,-0.09440118 2.863636,0 4.886918,0.5997064 8.971116,4.20228746 10.182693,8.98192976 0.267972,1.0571445 0.316376,1.5079965 0.314391,2.9283675 -0.0017,1.222744 -0.01052,1.365901 -0.121689,1.977273 -0.488952,2.688973 -1.741335,4.963191 -3.761758,6.831024 -1.662274,1.536731 -3.796995,2.585822 -6.037786,2.967219 -0.358283,0.06098 -0.859419,0.121622 -1.113637,0.134755 -0.254217,0.01313 -0.574714,0.03003 -0.712214,0.03754 -0.1375,0.0075 -0.526136,-0.0013 -0.863636,-0.01948 z m 2.386363,-2.080564 c 1.762714,-0.335928 3.390942,-1.089329 4.711346,-2.179999 0.482648,-0.398672 0.604154,-0.609885 0.575863,-1.001009 -0.02363,-0.326738 -0.147676,-0.513528 -0.72571,-1.092815 -0.955755,-0.957827 -2.027795,-1.629704 -3.302995,-2.07008 l -0.46877,-0.161884 -0.167594,0.08528 c -0.306361,0.155886 -0.969685,0.36888 -1.366631,0.438825 -0.502269,0.0885 -1.417839,0.0885 -1.920108,0 C 10.64255,15.818785 9.9795959,15.605831 9.67245,15.449543 L 9.5039905,15.363823 9.0588136,15.5238 c -0.9379209,0.337048 -1.99499,0.929495 -2.7179045,1.523283 -0.4174418,0.34288 -1.1267041,1.073344 -1.2209764,1.257476 -0.1541959,0.301174 -0.064649,0.849306 0.1843359,1.128356 0.3317319,0.371788 1.3735846,1.086433 2.1502769,1.474953 0.9084704,0.45444 1.6743872,0.723536 2.5910645,0.910344 0.757635,0.154396 1.037905,0.175811 2.113481,0.161488 0.828195,-0.01103 1.149361,-0.03372 1.545454,-0.109208 z m -0.875747,-7.958306 c 0.637853,-0.163135 1.230986,-0.522152 1.742664,-1.054815 0.666208,-0.69353 1.063813,-1.464828 1.320673,-2.561918 0.122788,-0.5244464 0.122788,-2.0664636 0,-2.5909095 C 15.638709,6.6221209 15.238776,5.839635 14.594028,5.1647386 13.832543,4.3676473 13.013743,4 12,4 10.994584,4 10.164693,4.3728348 9.4059723,5.1653864 8.780445,5.8188055 8.3875441,6.5671191 8.132455,7.5909091 8.0366736,7.9753245 8.0247455,8.1275123 8.023795,8.9772727 8.0226541,9.9993041 8.0587255,10.257072 8.3068686,11 c 0.4814959,1.441576 1.5976205,2.582647 2.8464344,2.910057 0.450913,0.118219 1.217783,0.119194 1.675495,0.0021 z"
     id="path889" /><path
     style="fill:none;stroke-width:0.0454545"
     d="M 11.659091,13.949373 C 9.9848597,13.79324 8.5396047,12.237831 8.1387669,10.160737 8.0032759,9.4586386 8.0092642,8.477558 8.1533523,7.7711723 8.5049964,6.0472525 9.5314956,4.7273352 10.91251,4.2233272 c 2.150628,-0.784882 4.41936,0.872836 4.948723,3.6159359 0.125659,0.6511494 0.128627,1.6571587 0.0067,2.2859089 -0.472465,2.437276 -2.204616,4.011111 -4.208885,3.824201 z"
     id="path891" /><path
     style="fill:#edeaea;stroke-width:3.77952756;fill-opacity:1;stroke-miterlimit:4;stroke-dasharray:none;opacity:0"
     d="M 11.318182,23.951058 C 8.4634036,23.796832 5.7821264,22.608496 3.6875182,20.569165 2.2327703,19.152809 1.257945,17.606998 0.63410395,15.727273 0.21246367,14.456808 0.04350543,13.39137 0.04323772,12.001313 0.04297005,10.611522 0.21208821,9.5443232 0.63410395,8.2727273 2.0958844,3.8681655 5.9830091,0.67510695 10.568182,0.11242974 c 0.769261,-0.09440118 2.094375,-0.09440118 2.863636,0 4.886918,0.5997064 8.971116,4.20228746 10.182693,8.98192976 0.267972,1.0571445 0.316376,1.5079965 0.314391,2.9283675 -0.0017,1.222744 -0.01052,1.365901 -0.121689,1.977273 -0.488952,2.688973 -1.741335,4.963191 -3.761758,6.831024 -1.662274,1.536731 -3.796995,2.585822 -6.037786,2.967219 -0.358283,0.06098 -0.859419,0.121622 -1.113637,0.134755 -0.254217,0.01313 -0.574714,0.03003 -0.712214,0.03754 -0.1375,0.0075 -0.526136,-0.0013 -0.863636,-0.01948 z m 2.386363,-2.080564 c 1.762714,-0.335928 3.390942,-1.089329 4.711346,-2.179999 0.482648,-0.398672 0.604154,-0.609885 0.575863,-1.001009 -0.02363,-0.326738 -0.147676,-0.513528 -0.72571,-1.092815 -0.955755,-0.957827 -2.027795,-1.629704 -3.302995,-2.07008 l -0.46877,-0.161884 -0.167594,0.08528 c -0.306361,0.155886 -0.969685,0.36888 -1.366631,0.438825 -0.502269,0.0885 -1.417839,0.0885 -1.920108,0 C 10.64255,15.818785 9.9795959,15.605831 9.67245,15.449543 L 9.5039905,15.363823 9.0588136,15.5238 c -0.9379209,0.337048 -1.99499,0.929495 -2.7179045,1.523283 -0.4174418,0.34288 -1.1267041,1.073344 -1.2209764,1.257476 -0.1541959,0.301174 -0.064649,0.849306 0.1843359,1.128356 0.3317319,0.371788 1.3735846,1.086433 2.1502769,1.474953 0.9084704,0.45444 1.6743872,0.723536 2.5910645,0.910344 0.757635,0.154396 1.037905,0.175811 2.113481,0.161488 0.828195,-0.01103 1.149361,-0.03372 1.545454,-0.109208 z m -0.875747,-7.958306 c 0.637853,-0.163135 1.230986,-0.522152 1.742664,-1.054815 0.666208,-0.69353 1.063813,-1.464828 1.320673,-2.561918 0.122788,-0.5244464 0.122788,-2.0664636 0,-2.5909095 C 15.638709,6.6221209 15.238776,5.839635 14.594028,5.1647386 13.832543,4.3676473 13.013743,4 12,4 10.994584,4 10.164693,4.3728348 9.4059723,5.1653864 8.780445,5.8188055 8.3875441,6.5671191 8.132455,7.5909091 8.0366736,7.9753245 8.0247455,8.1275123 8.023795,8.9772727 8.0226541,9.9993041 8.0587255,10.257072 8.3068686,11 c 0.4814959,1.441576 1.5976205,2.582647 2.8464344,2.910057 0.450913,0.118219 1.217783,0.119194 1.675495,0.0021 z"
     id="path893" /><path
     style="opacity:0;fill:#edeaea;fill-opacity:1;stroke-width:0.171797;stroke-miterlimit:4;stroke-dasharray:none"
     d="M 11.318182,23.951058 C 8.4634036,23.796832 5.7821264,22.608496 3.6875182,20.569165 2.2327703,19.152809 1.257945,17.606998 0.63410395,15.727273 0.21246367,14.456808 0.04350543,13.39137 0.04323772,12.001313 0.04297005,10.611522 0.21208821,9.5443232 0.63410395,8.2727273 2.0958844,3.8681655 5.9830091,0.67510695 10.568182,0.11242974 c 0.769261,-0.09440118 2.094375,-0.09440118 2.863636,0 4.886918,0.5997064 8.971116,4.20228746 10.182693,8.98192976 0.267972,1.0571445 0.316376,1.5079965 0.314391,2.9283675 -0.0017,1.222744 -0.01052,1.365901 -0.121689,1.977273 -0.488952,2.688973 -1.741335,4.963191 -3.761758,6.831024 -1.662274,1.536731 -3.796995,2.585822 -6.037786,2.967219 -0.358283,0.06098 -0.859419,0.121622 -1.113637,0.134755 -0.254217,0.01313 -0.574714,0.03003 -0.712214,0.03754 -0.1375,0.0075 -0.526136,-0.0013 -0.863636,-0.01948 z m 2.386363,-2.080564 c 1.762714,-0.335928 3.390942,-1.089329 4.711346,-2.179999 0.482648,-0.398672 0.604154,-0.609885 0.575863,-1.001009 -0.02363,-0.326738 -0.147676,-0.513528 -0.72571,-1.092815 -0.955755,-0.957827 -2.027795,-1.629704 -3.302995,-2.07008 l -0.46877,-0.161884 -0.167594,0.08528 c -0.306361,0.155886 -0.969685,0.36888 -1.366631,0.438825 -0.502269,0.0885 -1.417839,0.0885 -1.920108,0 C 10.64255,15.818785 9.9795959,15.605831 9.67245,15.449543 L 9.5039905,15.363823 9.0588136,15.5238 c -0.9379209,0.337048 -1.99499,0.929495 -2.7179045,1.523283 -0.4174418,0.34288 -1.1267041,1.073344 -1.2209764,1.257476 -0.1541959,0.301174 -0.064649,0.849306 0.1843359,1.128356 0.3317319,0.371788 1.3735846,1.086433 2.1502769,1.474953 0.9084704,0.45444 1.6743872,0.723536 2.5910645,0.910344 0.757635,0.154396 1.037905,0.175811 2.113481,0.161488 0.828195,-0.01103 1.149361,-0.03372 1.545454,-0.109208 z m -0.875747,-7.958306 c 0.637853,-0.163135 1.230986,-0.522152 1.742664,-1.054815 0.666208,-0.69353 1.063813,-1.464828 1.320673,-2.561918 0.122788,-0.5244464 0.122788,-2.0664636 0,-2.5909095 C 15.638709,6.6221209 15.238776,5.839635 14.594028,5.1647386 13.832543,4.3676473 13.013743,4 12,4 10.994584,4 10.164693,4.3728348 9.4059723,5.1653864 8.780445,5.8188055 8.3875441,6.5671191 8.132455,7.5909091 8.0366736,7.9753245 8.0247455,8.1275123 8.023795,8.9772727 8.0226541,9.9993041 8.0587255,10.257072 8.3068686,11 c 0.4814959,1.441576 1.5976205,2.582647 2.8464344,2.910057 0.450913,0.118219 1.217783,0.119194 1.675495,0.0021 z"
     id="path1187" /><path
     style="opacity:0;fill:#edeaea;fill-opacity:1;stroke-width:0.171797;stroke-miterlimit:4;stroke-dasharray:none"
     d="M 11.659091,13.949373 C 9.9848597,13.79324 8.5396047,12.237831 8.1387669,10.160737 8.0032759,9.4586386 8.0092642,8.477558 8.1533523,7.7711723 8.5049964,6.0472525 9.5314956,4.7273352 10.91251,4.2233272 c 2.150628,-0.784882 4.41936,0.872836 4.948723,3.6159359 0.125659,0.6511494 0.128627,1.6571587 0.0067,2.2859089 -0.472465,2.437276 -2.204616,4.011111 -4.208885,3.824201 z"
     id="path1189" /><path
     style="opacity:0;fill:#edeaea;fill-opacity:1;stroke-width:0.171797;stroke-miterlimit:4;stroke-dasharray:none"
     d="M 11.454545,21.94957 C 9.4011737,21.840751 7.3570922,21.04576 5.7028931,19.712621 c -0.4440984,-0.357904 -0.611984,-0.628018 -0.611984,-0.98463 0,-0.335479 0.084578,-0.47864 0.5827993,-0.986474 0.4705877,-0.479667 1.0031089,-0.91346 1.5535643,-1.265537 0.4506586,-0.288247 1.3884839,-0.742726 1.8699461,-0.906195 l 0.3859603,-0.131043 0.4093518,0.165734 c 0.6991291,0.283056 1.0805821,0.357859 1.9483781,0.382078 1.020791,0.02849 1.390091,-0.04096 2.49004,-0.468241 l 0.217313,-0.08442 0.39449,0.135325 c 0.54051,0.185415 1.450673,0.635836 1.943612,0.961855 0.567478,0.375317 1.185277,0.903763 1.59515,1.364443 0.380613,0.427793 0.473031,0.599245 0.473031,0.877559 0,0.287594 -0.144568,0.509404 -0.5564,0.853679 -1.945287,1.626183 -4.426491,2.456209 -6.9436,2.322813 z"
     id="path1191" /><path
     style="opacity:1;fill:#edeaea;fill-opacity:0;stroke-width:0.171797;stroke-miterlimit:4;stroke-dasharray:none;"
     d="M 11.318182,23.951058 C 8.4634036,23.796832 5.7821264,22.608496 3.6875182,20.569165 2.2327703,19.152809 1.257945,17.606998 0.63410395,15.727273 0.21246367,14.456808 0.04350543,13.39137 0.04323772,12.001313 0.04297005,10.611522 0.21208821,9.5443232 0.63410395,8.2727273 2.0958844,3.8681655 5.9830091,0.67510695 10.568182,0.11242974 c 0.769261,-0.09440118 2.094375,-0.09440118 2.863636,0 4.886918,0.5997064 8.971116,4.20228746 10.182693,8.98192976 0.267972,1.0571445 0.316376,1.5079965 0.314391,2.9283675 -0.0017,1.222744 -0.01052,1.365901 -0.121689,1.977273 -0.488952,2.688973 -1.741335,4.963191 -3.761758,6.831024 -1.662274,1.536731 -3.796995,2.585822 -6.037786,2.967219 -0.358283,0.06098 -0.859419,0.121622 -1.113637,0.134755 -0.254217,0.01313 -0.574714,0.03003 -0.712214,0.03754 -0.1375,0.0075 -0.526136,-0.0013 -0.863636,-0.01948 z m 2.386363,-2.080564 c 1.762714,-0.335928 3.390942,-1.089329 4.711346,-2.179999 0.482648,-0.398672 0.604154,-0.609885 0.575863,-1.001009 -0.02363,-0.326738 -0.147676,-0.513528 -0.72571,-1.092815 -0.955755,-0.957827 -2.027795,-1.629704 -3.302995,-2.07008 l -0.46877,-0.161884 -0.167594,0.08528 c -0.306361,0.155886 -0.969685,0.36888 -1.366631,0.438825 -0.502269,0.0885 -1.417839,0.0885 -1.920108,0 C 10.64255,15.818785 9.9795959,15.605831 9.67245,15.449543 L 9.5039905,15.363823 9.0588136,15.5238 c -0.9379209,0.337048 -1.99499,0.929495 -2.7179045,1.523283 -0.4174418,0.34288 -1.1267041,1.073344 -1.2209764,1.257476 -0.1541959,0.301174 -0.064649,0.849306 0.1843359,1.128356 0.3317319,0.371788 1.3735846,1.086433 2.1502769,1.474953 0.9084704,0.45444 1.6743872,0.723536 2.5910645,0.910344 0.757635,0.154396 1.037905,0.175811 2.113481,0.161488 0.828195,-0.01103 1.149361,-0.03372 1.545454,-0.109208 z m -0.875747,-7.958306 c 0.637853,-0.163135 1.230986,-0.522152 1.742664,-1.054815 0.666208,-0.69353 1.063813,-1.464828 1.320673,-2.561918 0.122788,-0.5244464 0.122788,-2.0664636 0,-2.5909095 C 15.638709,6.6221209 15.238776,5.839635 14.594028,5.1647386 13.832543,4.3676473 13.013743,4 12,4 10.994584,4 10.164693,4.3728348 9.4059723,5.1653864 8.780445,5.8188055 8.3875441,6.5671191 8.132455,7.5909091 8.0366736,7.9753245 8.0247455,8.1275123 8.023795,8.9772727 8.0226541,9.9993041 8.0587255,10.257072 8.3068686,11 c 0.4814959,1.441576 1.5976205,2.582647 2.8464344,2.910057 0.450913,0.118219 1.217783,0.119194 1.675495,0.0021 z"
     id="path1193" /><path
     style="opacity:1;fill:#edeaea;fill-opacity:0;stroke-width:0.171797;stroke-miterlimit:4;stroke-dasharray:none"
     d="M 11.318182,23.951058 C 8.4634036,23.796832 5.7821264,22.608496 3.6875182,20.569165 2.2327703,19.152809 1.257945,17.606998 0.63410395,15.727273 0.21246367,14.456808 0.04350543,13.39137 0.04323772,12.001313 0.04297005,10.611522 0.21208821,9.5443232 0.63410395,8.2727273 2.0958844,3.8681655 5.9830091,0.67510695 10.568182,0.11242974 c 0.769261,-0.09440118 2.094375,-0.09440118 2.863636,0 4.886918,0.5997064 8.971116,4.20228746 10.182693,8.98192976 0.267972,1.0571445 0.316376,1.5079965 0.314391,2.9283675 -0.0017,1.222744 -0.01052,1.365901 -0.121689,1.977273 -0.488952,2.688973 -1.741335,4.963191 -3.761758,6.831024 -1.662274,1.536731 -3.796995,2.585822 -6.037786,2.967219 -0.358283,0.06098 -0.859419,0.121622 -1.113637,0.134755 -0.254217,0.01313 -0.574714,0.03003 -0.712214,0.03754 -0.1375,0.0075 -0.526136,-0.0013 -0.863636,-0.01948 z m 2.386363,-2.080564 c 1.762714,-0.335928 3.390942,-1.089329 4.711346,-2.179999 0.482648,-0.398672 0.604154,-0.609885 0.575863,-1.001009 -0.02363,-0.326738 -0.147676,-0.513528 -0.72571,-1.092815 -0.955755,-0.957827 -2.027795,-1.629704 -3.302995,-2.07008 l -0.46877,-0.161884 -0.167594,0.08528 c -0.306361,0.155886 -0.969685,0.36888 -1.366631,0.438825 -0.502269,0.0885 -1.417839,0.0885 -1.920108,0 C 10.64255,15.818785 9.9795959,15.605831 9.67245,15.449543 L 9.5039905,15.363823 9.0588136,15.5238 c -0.9379209,0.337048 -1.99499,0.929495 -2.7179045,1.523283 -0.4174418,0.34288 -1.1267041,1.073344 -1.2209764,1.257476 -0.1541959,0.301174 -0.064649,0.849306 0.1843359,1.128356 0.3317319,0.371788 1.3735846,1.086433 2.1502769,1.474953 0.9084704,0.45444 1.6743872,0.723536 2.5910645,0.910344 0.757635,0.154396 1.037905,0.175811 2.113481,0.161488 0.828195,-0.01103 1.149361,-0.03372 1.545454,-0.109208 z m -0.875747,-7.958306 c 0.637853,-0.163135 1.230986,-0.522152 1.742664,-1.054815 0.666208,-0.69353 1.063813,-1.464828 1.320673,-2.561918 0.122788,-0.5244464 0.122788,-2.0664636 0,-2.5909095 C 15.638709,6.6221209 15.238776,5.839635 14.594028,5.1647386 13.832543,4.3676473 13.013743,4 12,4 10.994584,4 10.164693,4.3728348 9.4059723,5.1653864 8.780445,5.8188055 8.3875441,6.5671191 8.132455,7.5909091 8.0366736,7.9753245 8.0247455,8.1275123 8.023795,8.9772727 8.0226541,9.9993041 8.0587255,10.257072 8.3068686,11 c 0.4814959,1.441576 1.5976205,2.582647 2.8464344,2.910057 0.450913,0.118219 1.217783,0.119194 1.675495,0.0021 z"
     id="path1387" /><path
     style="opacity:1;fill:#edeaea;fill-opacity:0.70588237;stroke-width:0.171797;stroke-miterlimit:4;stroke-dasharray:none"
     d="M 11.318182,23.951058 C 8.4634036,23.796832 5.7821264,22.608496 3.6875182,20.569165 2.2327703,19.152809 1.257945,17.606998 0.63410395,15.727273 0.21246367,14.456808 0.04350543,13.39137 0.04323772,12.001313 0.04297005,10.611522 0.21208821,9.5443232 0.63410395,8.2727273 2.0958844,3.8681655 5.9830091,0.67510695 10.568182,0.11242974 c 0.769261,-0.09440118 2.094375,-0.09440118 2.863636,0 4.886918,0.5997064 8.971116,4.20228746 10.182693,8.98192976 0.267972,1.0571445 0.316376,1.5079965 0.314391,2.9283675 -0.0017,1.222744 -0.01052,1.365901 -0.121689,1.977273 -0.488952,2.688973 -1.741335,4.963191 -3.761758,6.831024 -1.662274,1.536731 -3.796995,2.585822 -6.037786,2.967219 -0.358283,0.06098 -0.859419,0.121622 -1.113637,0.134755 -0.254217,0.01313 -0.574714,0.03003 -0.712214,0.03754 -0.1375,0.0075 -0.526136,-0.0013 -0.863636,-0.01948 z m 2.386363,-2.080564 c 1.762714,-0.335928 3.390942,-1.089329 4.711346,-2.179999 0.482648,-0.398672 0.604154,-0.609885 0.575863,-1.001009 -0.02363,-0.326738 -0.147676,-0.513528 -0.72571,-1.092815 -0.955755,-0.957827 -2.027795,-1.629704 -3.302995,-2.07008 l -0.46877,-0.161884 -0.167594,0.08528 c -0.306361,0.155886 -0.969685,0.36888 -1.366631,0.438825 -0.502269,0.0885 -1.417839,0.0885 -1.920108,0 C 10.64255,15.818785 9.9795959,15.605831 9.67245,15.449543 L 9.5039905,15.363823 9.0588136,15.5238 c -0.9379209,0.337048 -1.99499,0.929495 -2.7179045,1.523283 -0.4174418,0.34288 -1.1267041,1.073344 -1.2209764,1.257476 -0.1541959,0.301174 -0.064649,0.849306 0.1843359,1.128356 0.3317319,0.371788 1.3735846,1.086433 2.1502769,1.474953 0.9084704,0.45444 1.6743872,0.723536 2.5910645,0.910344 0.757635,0.154396 1.037905,0.175811 2.113481,0.161488 0.828195,-0.01103 1.149361,-0.03372 1.545454,-0.109208 z m -0.875747,-7.958306 c 0.637853,-0.163135 1.230986,-0.522152 1.742664,-1.054815 0.666208,-0.69353 1.063813,-1.464828 1.320673,-2.561918 0.122788,-0.5244464 0.122788,-2.0664636 0,-2.5909095 C 15.638709,6.6221209 15.238776,5.839635 14.594028,5.1647386 13.832543,4.3676473 13.013743,4 12,4 10.994584,4 10.164693,4.3728348 9.4059723,5.1653864 8.780445,5.8188055 8.3875441,6.5671191 8.132455,7.5909091 8.0366736,7.9753245 8.0247455,8.1275123 8.023795,8.9772727 8.0226541,9.9993041 8.0587255,10.257072 8.3068686,11 c 0.4814959,1.441576 1.5976205,2.582647 2.8464344,2.910057 0.450913,0.118219 1.217783,0.119194 1.675495,0.0021 z"
     id="path1389" /><path
     style="opacity:1;fill:#edeaea;fill-opacity:0.705882;stroke-width:0.171797;stroke-miterlimit:4;stroke-dasharray:none"
     d="M 11,23.905891 C 8.8283073,23.725177 6.6861573,22.906925 4.9252391,21.585473 2.6782347,19.899244 1.1229459,17.598744 0.43475,14.94338 0.34887106,14.612021 0.2461115,14.144172 0.20639541,13.903716 0.04082116,12.901268 0.03985251,11.135268 0.20431123,10.103951 0.35804572,9.1398845 0.74044091,7.9158882 1.1838713,6.9685086 2.2697681,4.6485132 4.1650728,2.6612209 6.4558527,1.440655 9.3041514,-0.0769663 12.739068,-0.35960564 15.772727,0.67402359 c 2.471469,0.84207971 4.691328,2.54040431 6.133835,4.69275001 0.823563,1.2288264 1.417156,2.58889 1.750952,4.0118482 0.203879,0.8691302 0.228869,1.1608202 0.228475,2.6668332 -4.09e-4,1.578124 -0.01855,1.742488 -0.319923,2.898375 -1.08223,4.150855 -4.332232,7.448799 -8.453654,8.578355 C 13.802042,23.881318 12.3419,24.017555 11,23.905891 Z m 2.950682,-2.062725 c 1.581619,-0.335251 3.323357,-1.16047 4.431651,-2.099672 0.510844,-0.432905 0.587553,-0.551634 0.601911,-0.931622 0.0153,-0.404859 -0.05718,-0.55797 -0.473945,-1.001303 -0.984679,-1.047437 -2.216405,-1.848715 -3.556797,-2.313812 l -0.432861,-0.150197 -0.339866,0.141142 c -0.875883,0.363743 -1.668099,0.486018 -2.693501,0.415728 -0.533842,-0.0366 -1.185664,-0.200383 -1.6964722,-0.426287 -0.1411627,-0.06243 -0.2879204,-0.113507 -0.3261286,-0.113507 -0.1249259,0 -1.1130809,0.412137 -1.5979618,0.666473 -0.9608746,0.504011 -1.7966282,1.139066 -2.4171328,1.836681 -0.3783718,0.425393 -0.4041241,0.476775 -0.4041241,0.806325 0,0.537762 0.1596187,0.778523 0.8636364,1.302666 1.1067868,0.824007 2.5303577,1.493706 3.8125805,1.793577 0.8647356,0.202233 1.1440596,0.22623 2.4374196,0.209397 1.116208,-0.01453 1.278342,-0.0268 1.791591,-0.135589 z m -1.096044,-7.914719 c 0.396293,-0.09999 1.041213,-0.441231 1.399827,-0.740687 0.177455,-0.148182 0.459508,-0.440253 0.626785,-0.649045 0.51847,-0.647152 1.006629,-1.781543 1.050212,-2.440502 0.0088,-0.133483 0.02786,-0.2545057 0.0423,-0.2689394 0.03428,-0.034279 0.03428,-1.6242681 0,-1.6585472 C 15.959323,8.1562927 15.94029,8.03527 15.931462,7.9017868 15.888155,7.2469927 15.396899,6.0994823 14.891056,5.4715309 14.281132,4.7143745 13.586905,4.2473523 12.809892,4.0714848 12.366695,3.9711726 11.54869,3.9793205 11.123331,4.088284 9.8506886,4.4142948 8.7559095,5.5635564 8.2534655,7.1009718 8.0534173,7.7130945 8.0059559,8.0556705 8.0013436,8.9207855 c -0.00487,0.9126054 0.053523,1.3730655 0.2502714,1.9736845 0.30408,0.928274 0.8318218,1.740674 1.4849114,2.285855 0.3627316,0.302799 1.0071446,0.646732 1.3998376,0.747115 0.337539,0.08629 1.377859,0.0869 1.718274,10e-4 z"
     id="path1391" /><path
     style="opacity:1;fill:#000000;fill-opacity:0.705882;stroke-width:0.171797;stroke-miterlimit:4;stroke-dasharray:none"
     d="M 11.136364,13.848544 C 10.663273,13.702164 10.492474,13.623105 10.132916,13.384072 9.1311013,12.718066 8.4061426,11.546246 8.1387669,10.160737 8.0032759,9.4586386 8.0092642,8.477558 8.1533523,7.7711723 8.5049964,6.0472525 9.5314956,4.7273352 10.91251,4.2233272 c 2.150628,-0.784882 4.41936,0.872836 4.948723,3.6159359 0.125659,0.6511494 0.128627,1.6571587 0.0067,2.2859089 -0.349769,1.80433 -1.391672,3.160884 -2.813707,3.663437 -0.350819,0.12398 -0.461508,0.141102 -0.986087,0.152536 -0.512947,0.01118 -0.635888,-0.001 -0.931818,-0.0926 z"
     id="path1393" /><path
     style="opacity:0;fill:#000000;fill-opacity:0.70588237;stroke-width:0.171797;stroke-miterlimit:4;stroke-dasharray:none"
     d="M 10.590909,21.865295 C 9.0875909,21.632345 7.7661308,21.123822 6.5,20.291036 5.4369074,19.591797 5.0909091,19.207996 5.0909091,18.727991 c 0,-0.335479 0.084578,-0.47864 0.5827993,-0.986474 0.4705877,-0.479667 1.0031089,-0.91346 1.5535643,-1.265537 0.4506586,-0.288247 1.3884839,-0.742726 1.8699461,-0.906195 l 0.3859603,-0.131043 0.4093518,0.165734 c 0.6991291,0.283056 1.0805821,0.357859 1.9483781,0.382078 1.020791,0.02849 1.390091,-0.04096 2.49004,-0.468241 l 0.217313,-0.08442 0.39449,0.135325 c 0.54051,0.185415 1.450673,0.635836 1.943612,0.961855 0.567478,0.375317 1.185277,0.903763 1.59515,1.364443 0.380613,0.427793 0.473031,0.599245 0.473031,0.877559 0,0.287594 -0.144568,0.509404 -0.5564,0.853679 -1.44632,1.209065 -3.223793,1.993073 -5.115617,2.256394 -0.700632,0.09752 -2.002797,0.08888 -2.691619,-0.01786 z"
     id="path1395" /><path
     style="opacity:1;fill:#000000;fill-opacity:0.705882;stroke-width:0.171797;stroke-miterlimit:4;stroke-dasharray:none"
     d="M 11.067079,13.803962 C 9.1134232,13.156131 7.8787589,10.940852 8.0918984,8.4657846 8.2844014,6.2303571 9.6499033,4.453148 11.437805,4.1110658 c 0.432373,-0.082727 0.69206,-0.082718 1.124575,3.55e-5 0.747438,0.1430085 1.24733,0.4258816 1.892165,1.0707169 0.51978,0.5197799 0.780892,0.9119258 1.059311,1.5909091 0.329601,0.8037982 0.468518,1.7710237 0.394969,2.75 -0.146045,1.9439097 -1.240415,3.6000217 -2.781152,4.2087197 -0.358065,0.14146 -0.413072,0.149964 -1.059491,0.163798 -0.615387,0.01317 -0.712927,0.0043 -1.001103,-0.09128 z"
     id="path1561" /><path
     style="opacity:1;fill:#000000;fill-opacity:0.97594905;stroke-width:0.171797;stroke-miterlimit:4;stroke-dasharray:none"
     d="M 10.590909,21.865295 C 9.0875909,21.632345 7.7661308,21.123822 6.5,20.291036 5.4369074,19.591797 5.0909091,19.207996 5.0909091,18.727991 c 0,-0.335479 0.084578,-0.47864 0.5827993,-0.986474 0.4705877,-0.479667 1.0031089,-0.91346 1.5535643,-1.265537 0.4506586,-0.288247 1.3884839,-0.742726 1.8699461,-0.906195 l 0.3859603,-0.131043 0.4093518,0.165734 c 0.6991291,0.283056 1.0805821,0.357859 1.9483781,0.382078 1.020791,0.02849 1.390091,-0.04096 2.49004,-0.468241 l 0.217313,-0.08442 0.39449,0.135325 c 0.54051,0.185415 1.450673,0.635836 1.943612,0.961855 0.567478,0.375317 1.185277,0.903763 1.59515,1.364443 0.380613,0.427793 0.473031,0.599245 0.473031,0.877559 0,0.287594 -0.144568,0.509404 -0.5564,0.853679 -1.44632,1.209065 -3.223793,1.993073 -5.115617,2.256394 -0.700632,0.09752 -2.002797,0.08888 -2.691619,-0.01786 z"
     id="path1563" /></svg>
