<?xml version="1.0" encoding="UTF-8" standalone="no"?>
<svg xmlns:rdf="http://www.w3.org/1999/02/22-rdf-syntax-ns#" xmlns="http://www.w3.org/2000/svg" xml:space="preserve" height="35.022" viewBox="0 0 183.12475 35.022499" width="183.12" version="1.1" xmlns:cc="http://creativecommons.org/ns#" xmlns:dc="http://purl.org/dc/elements/1.1/"><g transform="matrix(1.25 0 0 -1.25 -89.038 963.83)"><g transform="translate(.88834 1.2437)"><path d="m106.89 743.04 5.445 25.618h-35.655l-5.445-25.618h35.655z" fill="#fff"/><path d="m49.912 1.1816-42.154 0.00195-0.025391 0.14062s24.782 5.0883 25.273 5.1758c5.6938 1.005 5.5176 2.1035 5.5176 2.1035 3.99-0.02 4.4802 0.14141 5.1777 0.72266 2.0975 1.7525-1.3125 6.916-1.3125 6.916-0.4875 0.36-37.352 14.596-37.352 14.596h38.568l6.3066-29.656zm8.082 0s-0.64281 3.0246-1.6016 7.5371c-0.57375 2.6038 1.1824 3.7832 4.1074 3.7832 2.9362 0 5.1678-1.1795 5.7266-3.7832 1.6288-7.5375-0.01734 0.0003906 1.6289-7.5371h-2.4551s-1.2401 5.7985-1.4551 6.791c-0.37 1.7388-1.2872 2.7773-3.0859 2.7773-1.8788-0.015-2.2639-1.0548-1.8789-2.7773-0.04375 0.17375 1.4609-6.791 1.4609-6.791h-2.4473zm12.213 0-2.3594 11.119h2.1738l1.7168-8.252h0.04883l2.7461 8.252h3.0859l2.3555-11.119h-2.1699l-1.752 8.3438h-0.0293l-2.6387-8.3438h-3.1777zm12.121 0-2.3535 11.119h2.4492l2.3574-11.119h-2.4531zm4.0957 0-0.38867 1.7695h3.459l-1.9863 9.3496h2.4512l1.9844-9.3496h3.457l0.37305-1.7695h-9.3496zm10.996 0-2.373 11.119h8.0586l0.375-1.7695h-5.5957l0.63672-3.0391h4.8828l0.35351-1.6426h-4.8809l0.61719-2.8984h5.6016l0.36914-1.7695h-8.0449zm9.832 0-2.3535 11.119h5.0215c3.1025 0 6.0793-2.0456 6.748-6.0469 0.4775-2.8375-0.65453-5.0723-4.0195-5.0723h-5.3965zm18.432 0c-2.8812 0-4.3136 1.023-4.5273 2.623-0.35625 2.6638 4.357 4.2468 4.002 5.8418-0.21875 0.9325-1.3649 0.88477-2.2949 0.88477h-3.0215l-0.375 1.7695h3.7539c3.0712 0 4.4041-1.1018 4.6504-2.623 0.4475-2.7288-4.3405-4.138-3.9668-5.9043 0.1225-0.54375 0.72484-0.82227 2.0586-0.82227h2.6211l0.38477-1.7695h-3.2852zm4.5449 0-0.38477 1.7695h3.457l-1.9844 9.3496h2.4492l1.9844-9.3496h3.459l0.37305-1.7695h-9.3535zm11.949 0-6.3711 11.119h2.4512l4.8828-8.9141 0.97852 7.1445h-3.5078l-0.95899 1.7695h7.1914l-1.7344-11.119h-2.9316zm5.6367 0-0.38672 1.7695h3.457l-1.9844 9.3496h2.4492l1.9844-9.3496h3.4551l0.375-1.7695h-9.3496zm10.984 0-2.375 11.119h8.0625l0.375-1.7695h-5.6016l0.63671-3.0391h4.8848l0.35547-1.6426h-4.8828l0.62109-2.8984h5.5957l0.37305-1.7695h-8.0449zm13.436 0c-2.885 0-4.3118 1.023-4.5293 2.623-0.35625 2.6638 4.357 4.2468 4.002 5.8418-0.21875 0.9325-1.3669 0.88477-2.2969 0.88477h-3.0234l-0.3711 1.7695h3.75c3.0712 0 4.4063-1.1018 4.6563-2.623 0.44624-2.7288-4.3427-4.138-3.9727-5.9043 0.125-0.54375 0.7307-0.82227 2.0644-0.82227h2.6152l0.39257-1.7695h-3.2871zm-62.889 1.7695h2.5c2.0288 0 2.7541 1.5052 2.4453 3.2715-0.4325 2.4975-2.0302 4.3086-4.8027 4.3086h-1.752l1.6094-7.5801zm-81.338 5.088c-1.1176-0.00877-1.9041 0.00727-1.9941 0.00195h-19.703-0.00391l-4.842 22.805s14.831-7.2784 16.645-8.2109c3.7162-1.9088 8.8555-4.4313 13.605-6.0488 0.905-0.30625 4.7816-1.5018 7.0391-1.9043 0.875-0.15625 1.2476-0.305 1.2363-0.46875-0.03375-0.4675-0.9143-0.49828-2.4043-0.42578-4.5462 0.21375-13.258 3.6834-15.766 5.0059l-2.8301-8.7734h18.088c0.609-1.7067-5.717-1.9546-9.07-1.9809zm9.5898 2.1133c-0.13125 0-0.24398 0.08867-0.39648 0.29492-0.13875 0.17875-0.25133 0.29922-0.61133 0.48047-0.55875 0.275-2.0194 0.42883-2.7031 0.48633-0.65625 0.055-0.83445 0.12125-0.8457 0.375-0.0063 0.22625 0.09781 0.35547 1.0391 0.35547 2.1662 0 6.0652-0.81711 7.2402-0.44336 0.62 0.19875 0.12203 1.3034-0.38672 2.7559-0.1975 0.56125 0.18906 0.52164 0.41406 0.27539 0.225-0.2475 1.2357-2.0985 1.3457-3.041 0.15625-1.3388-0.99242-1.5391-2.5762-1.5391h-2.5195zm32.047 9.3652c-3.4412 0-6.3084 1.7982-7.1484 5.752-0.66375 3.1625 1.2593 5.7656 4.6855 5.7656 3.4738 0 6.2641-1.7181 7.1328-5.7656 0.71125-3.3012-1.2587-5.752-4.6699-5.752zm98.146 0c-3.4125 0-6.6964 1.7657-7.5352 5.752-0.85125 3.9838 1.6741 5.7656 5.0879 5.7656 0.94375 0 1.8486-0.10664 2.7461-0.24414l0.60352-1.9121c-0.8825 0.21875-1.8167 0.39062-2.9805 0.39062-2.2175 0-3.4696-1.4875-2.9434-4 0.5275-2.5125 2.4178-3.9863 4.6328-3.9863 1.135 0 1.908 0.15492 2.6055 0.35742l0.21875-1.875c-0.78875-0.13875-1.6105-0.24805-2.4355-0.24805zm-87.484 0.19922c-2.8862 0-4.315 1.0243-4.5312 2.623-0.35625 2.6675 4.3564 4.2482 4.0039 5.8457-0.2175 0.93-1.3669 0.88281-2.2969 0.88281h-3.0234l-0.375 1.7676h3.7559c3.07 0 4.4029-1.1011 4.6504-2.6211 0.45-2.7275-4.34-4.14-3.9688-5.9062 0.12375-0.54375 0.72891-0.82227 2.0664-0.82227h2.6152l0.39062-1.7695h-3.2871zm4.543 0-0.38672 1.7695h3.457l-1.9844 9.3496h2.4492l1.9883-9.3496h3.4551l0.36914-1.7695h-9.3477zm35.789 0c-2.8862 0-4.3143 1.0243-4.5293 2.623-0.35875 2.6675 4.3544 4.2482 4.002 5.8457-0.2175 0.93-1.3669 0.88281-2.2969 0.88281h-3.0234l-0.37305 1.7676h3.7539c3.0688 0 4.4029-1.1011 4.6504-2.6211 0.45-2.7275-4.3389-4.14-3.9727-5.9062 0.125-0.54375 0.73266-0.82227 2.0664-0.82227h2.6191l0.38672-1.7695h-3.2832zm5.4062 0-2.373 11.119h8.0644l0.37109-1.7676h-5.5976l0.63671-3.041h4.8848l0.35547-1.6445h-4.8828l0.61718-2.8965h5.5996l0.36914-1.7695h-8.0449zm9.8262 0-2.3574 11.119h2.4492l1.9844-9.3652h2.2012c1.3638 0 1.4864 0.75828 1.3476 1.457-0.26125 1.3175-1.4098 1.8438-2.666 1.8438-0.2325 0-0.62289 0.01625-0.93164-0.03125l2.0176 6.0957h2.6816l-1.8301-4.793c1.6288-0.23125 3.0265-1.3933 3.1777-3.4883 0.1425-1.8613-0.72578-2.8379-2.8945-2.8379h-5.1797zm36.334 0-2.3672 11.119h8.0625l0.37109-1.7676h-5.5957l0.63477-3.041h4.8848l0.35547-1.6445h-4.8828l0.62109-2.8965h5.5957l0.37109-1.7695h-8.0508zm-118.14 0.002-2.3574 11.117h2.4512l1.9844-9.3496h1.998c0.9025 0 1.5191 0.4482 1.2578 1.6582-0.1375 0.66625-0.74492 1.8145-2.4199 1.8145-0.37125 0-0.77328-0.04687-1.082-0.07813l0.12305 1.6152c0.355 0.03125 0.77531 0.08984 1.1641 0.08984 2.2012 0 4.1386-1.2696 4.5898-3.3809 0.29375-1.3938 0.01383-3.4863-2.3887-3.4863h-5.3203zm42.75 0-6.3672 11.117h2.4453l4.8887-8.916 0.97266 7.1484h-3.502l-0.96094 1.7676h7.1914l-1.7324-11.117h-2.9355zm8.3027 0-2.3555 11.117h7.5215l0.38672-1.7676h-5.0703l1.9844-9.3496h-2.4668zm40.129 0 1.6738 11.117h2.8965l6.3301-11.117h-2.4199l-4.8828 8.918-1.1484-8.918h-2.4492zm12.377 0-2.3555 11.117h2.4492l2.3574-11.117h-2.4512zm-88.366 1.565c2.2638 0 3.0249 1.7351 2.5449 3.9863-0.53125 2.5125-2.0181 4-4.2344 4-2.2962 0-3.0562-1.845-2.5762-4 0.57375-2.5125 2.0494-3.9863 4.2656-3.9863z" transform="matrix(.8 0 0 -.8 71.231 768.66)" fill="#15569c"/><path d="m115.18 756.18-0.139-0.66h100.96l0.136 0.66h-100.95z" fill="#ed192d"/></g></g></svg>
